STARTFONT 2.1
FONT pelm.ascii.16
SIZE 30 72 72
FONTBOUNDINGBOX 16 30 0 -7
STARTPROPERTIES 4
FONT_DESCENT 7
FONT_ASCENT 23
DEFAULT_CHAR 0
COPYRIGHT "Copyright (C) 1985 Bigelow & Holmes Inc. All rights reserved."
ENDPROPERTIES
CHARS 127
STARTCHAR ch-0
ENCODING 0
SWIDTH 533 0
DWIDTH 16 0
BBX 16 30 0 -7
BITMAP
0000
0000
0000
0000
03e0
07f8
007e
007f
303f
301f
721f
77ff
f1ff
604f
207e
21dc
20de
20fe
01f8
0078
0070
03f0
01f0
01f0
0000
0000
0000
0000
0000
0000
ENDCHAR
STARTCHAR ch-2
ENCODING 2
SWIDTH 533 0
DWIDTH 16 0
BBX 16 30 0 -7
BITMAP
0000
0000
0f00
1fc0
30c0
3000
3c00
1f80
03c0
00c0
30c0
3f80
0f00
0000
0000
060c
060c
060c
060c
07fc
07fc
060c
060c
060c
060c
060c
0000
0000
0000
0000
ENDCHAR
STARTCHAR ch-3
ENCODING 3
SWIDTH 533 0
DWIDTH 16 0
BBX 16 30 0 -7
BITMAP
0000
0000
0f00
1fc0
30c0
3000
3c00
1f80
03c0
00c0
30c0
3f80
0f00
0000
0000
060c
070c
0318
03b0
01e0
00e0
00f0
01b8
0318
061c
060c
0000
0000
0000
0000
ENDCHAR
STARTCHAR ch-4
ENCODING 4
SWIDTH 533 0
DWIDTH 16 0
BBX 16 30 0 -7
BITMAP
0000
0000
3fc0
3fc0
3000
3000
3f80
3f80
3000
3000
3000
3fc0
3fc0
0000
0000
060c
070c
0318
03b0
01e0
00e0
00f0
01b8
0318
061c
060c
0000
0000
0000
0000
ENDCHAR
STARTCHAR ch-5
ENCODING 5
SWIDTH 533 0
DWIDTH 16 0
BBX 16 30 0 -7
BITMAP
0000
0000
3fc0
3fc0
3000
3000
3f80
3f80
3000
3000
3000
3fc0
3fc0
0000
0000
0ffc
0ffc
00c0
00c0
00c0
00c0
00c0
00c0
00c0
00c0
00c0
0000
0000
0000
0000
ENDCHAR
STARTCHAR ch-6
ENCODING 6
SWIDTH 533 0
DWIDTH 16 0
BBX 16 30 0 -7
BITMAP
0000
0000
3fc0
3fc0
3000
3000
3f80
3f80
3000
3000
3000
3fc0
3fc0
0000
0000
00e0
03f8
0318
060c
060c
060c
060c
060c
0318
03f8
00e0
0038
001c
0000
0000
ENDCHAR
STARTCHAR ch-7
ENCODING 7
SWIDTH 533 0
DWIDTH 16 0
BBX 16 30 0 -7
BITMAP
0000
0000
0700
0700
0d80
0d80
0d80
18c0
18c0
1fc0
3fe0
3060
3060
0000
0000
060c
0618
0630
0660
06c0
0780
06c0
06e0
0670
0638
061c
0000
0000
0000
0000
ENDCHAR
STARTCHAR ch-8
ENCODING 8
SWIDTH 533 0
DWIDTH 16 0
BBX 16 30 0 -7
BITMAP
0000
0000
3f00
3f80
30c0
30c0
3180
3f00
3180
30c0
30c0
3f80
3f00
0000
0000
0300
0300
0300
0300
0300
0300
0300
0300
0300
03fc
03fc
0000
0000
0000
0000
ENDCHAR
STARTCHAR ch-9
ENCODING 9
SWIDTH 533 0
DWIDTH 16 0
BBX 16 30 0 -7
BITMAP
0000
0000
3f00
3f80
30c0
30c0
3180
3f00
3180
30c0
30c0
3f80
3f00
0000
0000
00f0
01fc
030c
0300
03c0
01f8
003c
000c
030c
03f8
00f0
0000
0000
0000
0000
ENDCHAR
STARTCHAR ch-10
ENCODING 10
SWIDTH 533 0
DWIDTH 16 0
BBX 16 30 0 -7
BITMAP
0000
0000
3060
3060
3060
3060
3fe0
3fe0
3060
3060
3060
3060
3060
0000
0000
0ffc
0ffc
00c0
00c0
00c0
00c0
00c0
00c0
00c0
00c0
00c0
0000
0000
0000
0000
ENDCHAR
STARTCHAR ch-11
ENCODING 11
SWIDTH 533 0
DWIDTH 16 0
BBX 16 30 0 -7
BITMAP
0000
0000
3000
3000
3000
3000
3000
3000
3000
3000
3000
3fc0
3fc0
0000
0000
03fc
03fc
0300
0300
0300
03f8
03f8
0300
0300
0300
0300
0000
0000
0000
0000
ENDCHAR
STARTCHAR ch-12
ENCODING 12
SWIDTH 533 0
DWIDTH 16 0
BBX 16 30 0 -7
BITMAP
0000
0000
3060
3060
3060
18c0
18c0
18c0
0d80
0d80
0d80
0700
0700
0000
0000
0ffc
0ffc
00c0
00c0
00c0
00c0
00c0
00c0
00c0
00c0
00c0
0000
0000
0000
0000
ENDCHAR
STARTCHAR ch-13
ENCODING 13
SWIDTH 533 0
DWIDTH 16 0
BBX 16 30 0 -7
BITMAP
0000
0000
3fc0
3fc0
3000
3000
3000
3f80
3f80
3000
3000
3000
3000
0000
0000
03fc
03fc
0300
0300
0300
03f8
03f8
0300
0300
0300
0300
0000
0000
0000
0000
ENDCHAR
STARTCHAR ch-14
ENCODING 14
SWIDTH 533 0
DWIDTH 16 0
BBX 16 30 0 -7
BITMAP
0000
0000
0700
1fc0
18c0
3000
3000
3000
3000
3000
18c0
1fc0
0700
0000
0000
03f0
03f8
030c
030c
0318
03f0
0360
0330
0338
0318
031c
0000
0000
0000
0000
ENDCHAR
STARTCHAR ch-15
ENCODING 15
SWIDTH 533 0
DWIDTH 16 0
BBX 16 30 0 -7
BITMAP
0000
0000
0f00
1fc0
30c0
3000
3c00
1f80
03c0
00c0
30c0
3f80
0f00
0000
0000
00e0
03f8
0318
060c
060c
060c
060c
060c
0318
03f8
00e0
0000
0000
0000
0000
ENDCHAR
STARTCHAR ch-16
ENCODING 16
SWIDTH 533 0
DWIDTH 16 0
BBX 16 30 0 -7
BITMAP
0000
0000
0f00
1fc0
30c0
3000
3c00
1f80
03c0
00c0
30c0
3f80
0f00
0000
0000
03fc
03fc
0060
0060
0060
0060
0060
0060
0060
03fc
03fc
0000
0000
0000
0000
ENDCHAR
STARTCHAR ch-17
ENCODING 17
SWIDTH 533 0
DWIDTH 16 0
BBX 16 30 0 -7
BITMAP
0000
0000
3f00
3fc0
30c0
3060
3060
3060
3060
3060
30c0
3fc0
3f00
0000
0000
0300
0300
0300
0300
0300
0300
0300
0300
0300
03fc
03fc
0000
0000
0000
0000
ENDCHAR
STARTCHAR ch-18
ENCODING 18
SWIDTH 533 0
DWIDTH 16 0
BBX 16 30 0 -7
BITMAP
0000
0000
3f00
3fc0
30c0
3060
3060
3060
3060
3060
30c0
3fc0
3f00
0000
0000
00e0
01e0
0360
0060
0060
0060
0060
0060
0060
03fc
03fc
0000
0000
0000
0000
ENDCHAR
STARTCHAR ch-19
ENCODING 19
SWIDTH 533 0
DWIDTH 16 0
BBX 16 30 0 -7
BITMAP
0000
0000
3f00
3fc0
30c0
3060
3060
3060
3060
3060
30c0
3fc0
3f00
0000
0000
00f0
03f8
030c
000c
001c
0078
00e0
0180
0300
03fc
03fc
0000
0000
0000
0000
ENDCHAR
STARTCHAR ch-20
ENCODING 20
SWIDTH 533 0
DWIDTH 16 0
BBX 16 30 0 -7
BITMAP
0000
0000
3f00
3fc0
30c0
3060
3060
3060
3060
3060
30c0
3fc0
3f00
0000
0000
00f0
03f8
030c
000c
00f8
00f0
0018
000c
030c
03f8
00f0
0000
0000
0000
0000
ENDCHAR
STARTCHAR ch-21
ENCODING 21
SWIDTH 533 0
DWIDTH 16 0
BBX 16 30 0 -7
BITMAP
0000
0000
3f00
3fc0
30c0
3060
3060
3060
3060
3060
30c0
3fc0
3f00
0000
0000
0070
00f0
01b0
0330
0330
0630
07fc
07fc
0030
0030
0030
0000
0000
0000
0000
ENDCHAR
STARTCHAR ch-22
ENCODING 22
SWIDTH 533 0
DWIDTH 16 0
BBX 16 30 0 -7
BITMAP
0000
0000
3060
3060
3860
3c60
3e60
3760
33e0
31e0
30e0
3060
3060
0000
0000
060c
0618
0630
0660
06c0
0780
06c0
06e0
0670
0638
061c
0000
0000
0000
0000
ENDCHAR
STARTCHAR ch-23
ENCODING 23
SWIDTH 533 0
DWIDTH 16 0
BBX 16 30 0 -7
BITMAP
0000
0000
0f00
1fc0
30c0
3000
3c00
1f80
03c0
00c0
30c0
3f80
0f00
0000
0000
0c0c
0e0c
0f0c
0f8c
0dcc
0ccc
0c6c
0c7c
0c3c
0c1c
0c0c
0000
0000
0000
0000
ENDCHAR
STARTCHAR ch-24
ENCODING 24
SWIDTH 533 0
DWIDTH 16 0
BBX 16 30 0 -7
BITMAP
0000
0000
3fc0
3fc0
3000
3000
3f80
3f80
3000
3000
3000
3fc0
3fc0
0000
0000
07e0
07f0
0618
0618
0630
07e0
0630
0618
0618
07f0
07e0
0000
0000
0000
0000
ENDCHAR
STARTCHAR ch-25
ENCODING 25
SWIDTH 533 0
DWIDTH 16 0
BBX 16 30 0 -7
BITMAP
0000
0000
0700
1fc0
18c0
3000
3000
3000
3000
3000
18c0
1fc0
0700
0000
0000
060c
060c
070c
078c
07cc
06ec
067c
063c
061c
060c
060c
0000
0000
0000
0000
ENDCHAR
STARTCHAR ch-26
ENCODING 26
SWIDTH 533 0
DWIDTH 16 0
BBX 16 30 0 -7
BITMAP
0000
0000
3fc0
3fc0
3000
3000
3f80
3f80
3000
3000
3000
3fc0
3fc0
0000
0000
0c0c
0c0c
0e1c
0f1c
0f3c
0dac
0dac
0dec
0ccc
0ccc
0ccc
0000
0000
0000
0000
ENDCHAR
STARTCHAR ch-27
ENCODING 27
SWIDTH 533 0
DWIDTH 16 0
BBX 16 30 0 -7
BITMAP
0000
0000
0000
0000
07e0
1ff8
3c18
3818
3800
3800
1c00
0e00
0700
0380
0180
01c0
01c0
01c0
0000
0000
01c0
01c0
01c0
0000
0000
0000
0000
0000
0000
0000
ENDCHAR
STARTCHAR ch-28
ENCODING 28
SWIDTH 533 0
DWIDTH 16 0
BBX 16 30 0 -7
BITMAP
0000
0000
3fc0
3fc0
3000
3000
3f80
3f80
3000
3000
3000
3fc0
3fc0
0000
0000
00f0
03fc
030c
0600
0600
0600
0600
0600
030c
03fc
00f0
0000
0000
0000
0000
ENDCHAR
STARTCHAR ch-29
ENCODING 29
SWIDTH 533 0
DWIDTH 16 0
BBX 16 30 0 -7
BITMAP
0000
0000
3fc0
3fc0
3000
3000
3000
3f80
3f80
3000
3000
3000
3000
0000
0000
00f0
01fc
030c
0300
03c0
01f8
003c
000c
030c
03f8
00f0
0000
0000
0000
0000
ENDCHAR
STARTCHAR ch-30
ENCODING 30
SWIDTH 533 0
DWIDTH 16 0
BBX 16 30 0 -7
BITMAP
0000
0000
0780
1fe0
1860
3000
3000
3000
3060
3060
1860
1fe0
07c0
0000
0000
00f0
01fc
030c
0300
03c0
01f8
003c
000c
030c
03f8
00f0
0000
0000
0000
0000
ENDCHAR
STARTCHAR ch-31
ENCODING 31
SWIDTH 533 0
DWIDTH 16 0
BBX 16 30 0 -7
BITMAP
0000
0000
3f00
3f80
30c0
30c0
3180
3f00
3600
3300
3380
3180
31c0
0000
0000
00f0
01fc
030c
0300
03c0
01f8
003c
000c
030c
03f8
00f0
0000
0000
0000
0000
ENDCHAR
STARTCHAR ch-32
ENCODING 32
SWIDTH 533 0
DWIDTH 16 0
BBX 16 30 0 -7
BITMAP
0000
0000
0000
0000
0000
0000
0000
0000
0000
0000
0000
0000
0000
0000
0000
0000
0000
0000
0000
0000
0000
0000
0000
0000
0000
0000
0000
0000
0000
0000
ENDCHAR
STARTCHAR ch-33
ENCODING 33
SWIDTH 533 0
DWIDTH 16 0
BBX 16 30 0 -7
BITMAP
0000
0000
0000
0000
0380
0380
0380
0380
0380
0380
0380
0380
0380
0380
0380
0380
0380
0380
0000
0000
0380
0380
0380
0000
0000
0000
0000
0000
0000
0000
ENDCHAR
STARTCHAR ch-34
ENCODING 34
SWIDTH 533 0
DWIDTH 16 0
BBX 16 30 0 -7
BITMAP
0000
0000
0000
0000
0e70
0e70
0e70
0e70
0420
0420
0000
0000
0000
0000
0000
0000
0000
0000
0000
0000
0000
0000
0000
0000
0000
0000
0000
0000
0000
0000
ENDCHAR
STARTCHAR ch-35
ENCODING 35
SWIDTH 533 0
DWIDTH 16 0
BBX 16 30 0 -7
BITMAP
0000
0000
0000
0000
018c
018c
018c
0318
0318
0318
3ffe
3ffe
0630
0660
0c60
7ffc
7ffc
18c0
18c0
18c0
3180
3180
3180
0000
0000
0000
0000
0000
0000
0000
ENDCHAR
STARTCHAR ch-36
ENCODING 36
SWIDTH 533 0
DWIDTH 16 0
BBX 16 30 0 -7
BITMAP
0000
0000
0180
0180
03e0
0ff8
1c98
1c80
1c80
1c80
1e80
0f80
07c0
03e0
01f0
0170
0138
0138
0138
0138
1938
1ff0
07c0
0180
0180
0000
0000
0000
0000
0000
ENDCHAR
STARTCHAR ch-37
ENCODING 37
SWIDTH 533 0
DWIDTH 16 0
BBX 16 30 0 -7
BITMAP
0000
0000
0000
0003
3c06
7e0c
e70c
c318
c330
c360
e760
7ec0
3d80
0180
033c
067e
06e7
0cc3
18c3
30c3
30e7
607e
c03c
0000
0000
0000
0000
0000
0000
0000
ENDCHAR
STARTCHAR ch-38
ENCODING 38
SWIDTH 533 0
DWIDTH 16 0
BBX 16 30 0 -7
BITMAP
0000
0000
0000
0000
0780
1fc0
1ce0
3860
3860
1ce0
1dc0
0f00
0f00
3b87
71c7
e1c6
e0e6
e0ec
e078
f038
78fc
3fce
0f0e
0000
0000
0000
0000
0000
0000
0000
ENDCHAR
STARTCHAR ch-39
ENCODING 39
SWIDTH 533 0
DWIDTH 16 0
BBX 16 30 0 -7
BITMAP
0000
0000
0000
03c0
03c0
03c0
03c0
00c0
00c0
0180
0300
0000
0000
0000
0000
0000
0000
0000
0000
0000
0000
0000
0000
0000
0000
0000
0000
0000
0000
0000
ENDCHAR
STARTCHAR ch-40
ENCODING 40
SWIDTH 533 0
DWIDTH 16 0
BBX 16 30 0 -7
BITMAP
0000
0000
0000
0038
00f8
01e0
0380
0700
0700
0e00
0e00
0e00
1c00
1c00
1c00
1c00
1c00
1c00
0e00
0e00
0e00
0700
0700
0380
01e0
00f8
0038
0000
0000
0000
ENDCHAR
STARTCHAR ch-41
ENCODING 41
SWIDTH 533 0
DWIDTH 16 0
BBX 16 30 0 -7
BITMAP
0000
0000
0000
1c00
1f00
0780
01c0
00e0
00e0
0070
0070
0070
0038
0038
0038
0038
0038
0038
0070
0070
0070
00e0
00e0
01c0
0780
1f00
1c00
0000
0000
0000
ENDCHAR
STARTCHAR ch-42
ENCODING 42
SWIDTH 533 0
DWIDTH 16 0
BBX 16 30 0 -7
BITMAP
0000
0000
0000
0000
0180
0180
1188
399c
3e7c
0c30
0240
07e0
0e70
1c38
0c30
0000
0000
0000
0000
0000
0000
0000
0000
0000
0000
0000
0000
0000
0000
0000
ENDCHAR
STARTCHAR ch-43
ENCODING 43
SWIDTH 533 0
DWIDTH 16 0
BBX 16 30 0 -7
BITMAP
0000
0000
0000
0000
0000
0000
0000
0180
0180
0180
0180
0180
0180
7ffe
7ffe
0180
0180
0180
0180
0180
0180
0000
0000
0000
0000
0000
0000
0000
0000
0000
ENDCHAR
STARTCHAR ch-44
ENCODING 44
SWIDTH 533 0
DWIDTH 16 0
BBX 16 30 0 -7
BITMAP
0000
0000
0000
0000
0000
0000
0000
0000
0000
0000
0000
0000
0000
0000
0000
0000
0000
0000
0000
03c0
03c0
03c0
03c0
00c0
00c0
0180
0300
0000
0000
0000
ENDCHAR
STARTCHAR ch-45
ENCODING 45
SWIDTH 533 0
DWIDTH 16 0
BBX 16 30 0 -7
BITMAP
0000
0000
0000
0000
0000
0000
0000
0000
0000
0000
0000
0000
0000
7ffe
7ffe
0000
0000
0000
0000
0000
0000
0000
0000
0000
0000
0000
0000
0000
0000
0000
ENDCHAR
STARTCHAR ch-46
ENCODING 46
SWIDTH 533 0
DWIDTH 16 0
BBX 16 30 0 -7
BITMAP
0000
0000
0000
0000
0000
0000
0000
0000
0000
0000
0000
0000
0000
0000
0000
0000
0000
0000
0000
03c0
03c0
03c0
03c0
0000
0000
0000
0000
0000
0000
0000
ENDCHAR
STARTCHAR ch-47
ENCODING 47
SWIDTH 533 0
DWIDTH 16 0
BBX 16 30 0 -7
BITMAP
0000
0000
0000
0006
000e
000c
001c
0018
0038
0030
0070
0060
00e0
00c0
01c0
0180
0380
0300
0700
0600
0e00
0c00
1c00
1800
3800
3000
7000
0000
0000
0000
ENDCHAR
STARTCHAR ch-48
ENCODING 48
SWIDTH 533 0
DWIDTH 16 0
BBX 16 30 0 -7
BITMAP
0000
0000
0000
0000
07c0
0fe0
1c70
3838
3838
701c
701c
701c
701c
701c
701c
701c
701c
701c
3838
3838
1c70
0fe0
07c0
0000
0000
0000
0000
0000
0000
0000
ENDCHAR
STARTCHAR ch-49
ENCODING 49
SWIDTH 533 0
DWIDTH 16 0
BBX 16 30 0 -7
BITMAP
0000
0000
0000
0000
0780
0f80
3b80
7380
0380
0380
0380
0380
0380
0380
0380
0380
0380
0380
0380
0380
0380
7ffc
7ffc
0000
0000
0000
0000
0000
0000
0000
ENDCHAR
STARTCHAR ch-50
ENCODING 50
SWIDTH 533 0
DWIDTH 16 0
BBX 16 30 0 -7
BITMAP
0000
0000
0000
0000
0f80
3fe0
3070
0038
0038
0038
0038
0070
0070
00e0
01c0
0380
0700
0e00
1c00
3800
3800
3ff8
3ff8
0000
0000
0000
0000
0000
0000
0000
ENDCHAR
STARTCHAR ch-51
ENCODING 51
SWIDTH 533 0
DWIDTH 16 0
BBX 16 30 0 -7
BITMAP
0000
0000
0000
0000
0f80
3fe0
30f0
0070
0070
0070
00e0
01c0
0f80
0fe0
00f0
0078
0038
0038
0038
0038
3070
3fe0
0f80
0000
0000
0000
0000
0000
0000
0000
ENDCHAR
STARTCHAR ch-52
ENCODING 52
SWIDTH 533 0
DWIDTH 16 0
BBX 16 30 0 -7
BITMAP
0000
0000
0000
0000
0070
00f0
01f0
01f0
0370
0770
0670
0e70
1c70
1870
3870
7070
7ffe
7ffe
0070
0070
0070
0070
0070
0000
0000
0000
0000
0000
0000
0000
ENDCHAR
STARTCHAR ch-53
ENCODING 53
SWIDTH 533 0
DWIDTH 16 0
BBX 16 30 0 -7
BITMAP
0000
0000
0000
0000
0ff8
0ff8
0e00
0e00
0e00
0e00
0e00
0f80
0fe0
00f0
0078
0038
0038
0038
0038
0038
1870
1fe0
0780
0000
0000
0000
0000
0000
0000
0000
ENDCHAR
STARTCHAR ch-54
ENCODING 54
SWIDTH 533 0
DWIDTH 16 0
BBX 16 30 0 -7
BITMAP
0000
0000
0000
0000
01e0
07f8
0e18
1c00
1c00
3800
3800
39e0
3bf0
3e38
3c1c
381c
381c
381c
1c1c
1c1c
0e38
07f0
03e0
0000
0000
0000
0000
0000
0000
0000
ENDCHAR
STARTCHAR ch-55
ENCODING 55
SWIDTH 533 0
DWIDTH 16 0
BBX 16 30 0 -7
BITMAP
0000
0000
0000
0000
3ff8
3ff8
0038
0030
0070
0060
00e0
00c0
01c0
0180
0380
0300
0700
0600
0e00
0e00
1c00
1c00
1c00
0000
0000
0000
0000
0000
0000
0000
ENDCHAR
STARTCHAR ch-56
ENCODING 56
SWIDTH 533 0
DWIDTH 16 0
BBX 16 30 0 -7
BITMAP
0000
0000
0000
03e0
0ff0
0e78
1c38
1c38
1c38
1c38
0e70
0fe0
03c0
0ff0
1cf8
1838
381c
381c
381c
381c
1c38
0ff0
07e0
0000
0000
0000
0000
0000
0000
0000
ENDCHAR
STARTCHAR ch-57
ENCODING 57
SWIDTH 533 0
DWIDTH 16 0
BBX 16 30 0 -7
BITMAP
0000
0000
0000
0000
07c0
0fe0
1c70
3838
3838
381c
381c
381c
383c
1c7c
0fdc
079c
001c
001c
0038
0038
1870
1fe0
0780
0000
0000
0000
0000
0000
0000
0000
ENDCHAR
STARTCHAR ch-58
ENCODING 58
SWIDTH 533 0
DWIDTH 16 0
BBX 16 30 0 -7
BITMAP
0000
0000
0000
0000
0000
0000
0000
0000
0000
03c0
03c0
03c0
03c0
0000
0000
0000
0000
0000
0000
03c0
03c0
03c0
03c0
0000
0000
0000
0000
0000
0000
0000
ENDCHAR
STARTCHAR ch-59
ENCODING 59
SWIDTH 533 0
DWIDTH 16 0
BBX 16 30 0 -7
BITMAP
0000
0000
0000
0000
0000
0000
0000
0000
0000
03c0
03c0
03c0
03c0
0000
0000
0000
0000
0000
0000
03c0
03c0
03c0
03c0
00c0
00c0
0180
0300
0000
0000
0000
ENDCHAR
STARTCHAR ch-60
ENCODING 60
SWIDTH 533 0
DWIDTH 16 0
BBX 16 30 0 -7
BITMAP
0000
0000
0000
0000
0000
0000
0000
0000
000c
003c
00f0
03c0
0f00
3c00
7800
3c00
0f00
03c0
00f0
003c
000c
0000
0000
0000
0000
0000
0000
0000
0000
0000
ENDCHAR
STARTCHAR ch-61
ENCODING 61
SWIDTH 533 0
DWIDTH 16 0
BBX 16 30 0 -7
BITMAP
0000
0000
0000
0000
0000
0000
0000
0000
0000
0000
0000
7ffe
7ffe
0000
0000
7ffe
7ffe
0000
0000
0000
0000
0000
0000
0000
0000
0000
0000
0000
0000
0000
ENDCHAR
STARTCHAR ch-62
ENCODING 62
SWIDTH 533 0
DWIDTH 16 0
BBX 16 30 0 -7
BITMAP
0000
0000
0000
0000
0000
0000
0000
0000
6000
7800
1e00
0780
01e0
0078
003c
0078
01e0
0780
1e00
7800
6000
0000
0000
0000
0000
0000
0000
0000
0000
0000
ENDCHAR
STARTCHAR ch-63
ENCODING 63
SWIDTH 533 0
DWIDTH 16 0
BBX 16 30 0 -7
BITMAP
0000
0000
0000
0000
0fc0
3ff0
3078
3038
0038
0038
0070
00e0
01c0
0380
0300
0700
0700
0700
0000
0000
0700
0700
0700
0000
0000
0000
0000
0000
0000
0000
ENDCHAR
STARTCHAR ch-64
ENCODING 64
SWIDTH 533 0
DWIDTH 16 0
BBX 16 30 0 -7
BITMAP
0000
0000
0000
0000
03f0
0ff8
1c1c
180c
30fc
318c
630c
630c
660c
660c
661c
661c
662c
676e
33ce
3000
1c18
0ff8
03e0
0000
0000
0000
0000
0000
0000
0000
ENDCHAR
STARTCHAR ch-65
ENCODING 65
SWIDTH 533 0
DWIDTH 16 0
BBX 16 30 0 -7
BITMAP
0000
0000
0000
0000
0380
0380
07c0
07c0
07c0
0ce0
0ce0
1ce0
1870
1870
3870
3038
3ff8
7ff8
601c
601c
e01c
c00e
c00e
0000
0000
0000
0000
0000
0000
0000
ENDCHAR
STARTCHAR ch-66
ENCODING 66
SWIDTH 533 0
DWIDTH 16 0
BBX 16 30 0 -7
BITMAP
0000
0000
0000
0000
3fc0
3ff0
3878
3838
3838
3838
3870
38e0
3fc0
3ff0
3878
3838
381c
381c
381c
381c
383c
3ff8
3fe0
0000
0000
0000
0000
0000
0000
0000
ENDCHAR
STARTCHAR ch-67
ENCODING 67
SWIDTH 533 0
DWIDTH 16 0
BBX 16 30 0 -7
BITMAP
0000
0000
0000
0000
03f0
0ffc
1e1c
3800
3800
7000
7000
7000
7000
7000
7000
7000
7000
7000
3800
3800
1e1c
0ffc
03f0
0000
0000
0000
0000
0000
0000
0000
ENDCHAR
STARTCHAR ch-68
ENCODING 68
SWIDTH 533 0
DWIDTH 16 0
BBX 16 30 0 -7
BITMAP
0000
0000
0000
0000
7f80
7fe0
70f0
7038
7038
701c
701c
701c
701c
701c
701c
701c
701c
701c
7038
7038
70f0
7fe0
7f80
0000
0000
0000
0000
0000
0000
0000
ENDCHAR
STARTCHAR ch-69
ENCODING 69
SWIDTH 533 0
DWIDTH 16 0
BBX 16 30 0 -7
BITMAP
0000
0000
0000
0000
3ff8
3ff8
3800
3800
3800
3800
3800
3800
3ff0
3ff0
3800
3800
3800
3800
3800
3800
3800
3ff8
3ff8
0000
0000
0000
0000
0000
0000
0000
ENDCHAR
STARTCHAR ch-70
ENCODING 70
SWIDTH 533 0
DWIDTH 16 0
BBX 16 30 0 -7
BITMAP
0000
0000
0000
0000
3ffc
3ffc
3800
3800
3800
3800
3800
3800
3800
3ff8
3ff8
3800
3800
3800
3800
3800
3800
3800
3800
0000
0000
0000
0000
0000
0000
0000
ENDCHAR
STARTCHAR ch-71
ENCODING 71
SWIDTH 533 0
DWIDTH 16 0
BBX 16 30 0 -7
BITMAP
0000
0000
0000
0000
03f0
0ffc
1e1c
3800
3800
7000
7000
7000
7000
7000
7000
701c
701c
701c
381c
381c
1e1c
0ffc
03fc
0000
0000
0000
0000
0000
0000
0000
ENDCHAR
STARTCHAR ch-72
ENCODING 72
SWIDTH 533 0
DWIDTH 16 0
BBX 16 30 0 -7
BITMAP
0000
0000
0000
0000
381c
381c
381c
381c
381c
381c
381c
381c
3ffc
3ffc
381c
381c
381c
381c
381c
381c
381c
381c
381c
0000
0000
0000
0000
0000
0000
0000
ENDCHAR
STARTCHAR ch-73
ENCODING 73
SWIDTH 533 0
DWIDTH 16 0
BBX 16 30 0 -7
BITMAP
0000
0000
0000
0000
7ffc
7ffc
0380
0380
0380
0380
0380
0380
0380
0380
0380
0380
0380
0380
0380
0380
0380
7ffc
7ffc
0000
0000
0000
0000
0000
0000
0000
ENDCHAR
STARTCHAR ch-74
ENCODING 74
SWIDTH 533 0
DWIDTH 16 0
BBX 16 30 0 -7
BITMAP
0000
0000
0000
0000
0ff0
0ff0
0070
0070
0070
0070
0070
0070
0070
0070
0070
0070
0070
0070
0070
0070
00e0
1fc0
1f00
0000
0000
0000
0000
0000
0000
0000
ENDCHAR
STARTCHAR ch-75
ENCODING 75
SWIDTH 533 0
DWIDTH 16 0
BBX 16 30 0 -7
BITMAP
0000
0000
0000
0000
7018
7038
7070
70e0
70c0
71c0
7380
7700
7e00
7e00
7700
7780
73c0
71e0
70e0
7070
7078
703c
701c
0000
0000
0000
0000
0000
0000
0000
ENDCHAR
STARTCHAR ch-76
ENCODING 76
SWIDTH 533 0
DWIDTH 16 0
BBX 16 30 0 -7
BITMAP
0000
0000
0000
0000
3800
3800
3800
3800
3800
3800
3800
3800
3800
3800
3800
3800
3800
3800
3800
3800
3800
3ff8
3ff8
0000
0000
0000
0000
0000
0000
0000
ENDCHAR
STARTCHAR ch-77
ENCODING 77
SWIDTH 533 0
DWIDTH 16 0
BBX 16 30 0 -7
BITMAP
0000
0000
0000
0000
f01e
f01e
f01e
f83e
f83e
d86e
dc6e
dc6e
dc6e
ceee
cece
cece
cece
c78e
c78e
c78e
c30e
c30e
c00e
0000
0000
0000
0000
0000
0000
0000
ENDCHAR
STARTCHAR ch-78
ENCODING 78
SWIDTH 533 0
DWIDTH 16 0
BBX 16 30 0 -7
BITMAP
0000
0000
0000
0000
700c
780c
780c
7c0c
7c0c
6e0c
6e0c
670c
670c
638c
61cc
61cc
60ec
60ec
607c
607c
603c
603c
601c
0000
0000
0000
0000
0000
0000
0000
ENDCHAR
STARTCHAR ch-79
ENCODING 79
SWIDTH 533 0
DWIDTH 16 0
BBX 16 30 0 -7
BITMAP
0000
0000
0000
0000
03c0
0ff0
1c38
381c
381c
700e
700e
700e
700e
700e
700e
700e
700e
700e
381c
381c
1c38
0ff0
03c0
0000
0000
0000
0000
0000
0000
0000
ENDCHAR
STARTCHAR ch-80
ENCODING 80
SWIDTH 533 0
DWIDTH 16 0
BBX 16 30 0 -7
BITMAP
0000
0000
0000
0000
3fe0
3ff8
383c
381c
381c
381c
381c
381c
3838
38f0
3fe0
3f80
3800
3800
3800
3800
3800
3800
3800
0000
0000
0000
0000
0000
0000
0000
ENDCHAR
STARTCHAR ch-81
ENCODING 81
SWIDTH 533 0
DWIDTH 16 0
BBX 16 30 0 -7
BITMAP
0000
0000
0000
0000
0780
1fe0
3870
7038
7038
e01c
e01c
e01c
e01c
e01c
e01c
e01c
e01c
e01c
7038
7038
3870
1fe0
07c0
00e0
0078
003e
001c
0000
0000
0000
ENDCHAR
STARTCHAR ch-82
ENCODING 82
SWIDTH 533 0
DWIDTH 16 0
BBX 16 30 0 -7
BITMAP
0000
0000
0000
0000
3fc0
3ff0
3878
3838
3838
3838
3838
3870
38e0
3fc0
3fc0
38e0
38e0
3870
3870
3838
3838
381c
381c
0000
0000
0000
0000
0000
0000
0000
ENDCHAR
STARTCHAR ch-83
ENCODING 83
SWIDTH 533 0
DWIDTH 16 0
BBX 16 30 0 -7
BITMAP
0000
0000
0000
0000
03e0
0ff8
1c38
3800
3800
3800
3c00
3f00
1fc0
0ff0
03f8
00fc
003c
001c
001c
001c
3838
3ff8
0fe0
0000
0000
0000
0000
0000
0000
0000
ENDCHAR
STARTCHAR ch-84
ENCODING 84
SWIDTH 533 0
DWIDTH 16 0
BBX 16 30 0 -7
BITMAP
0000
0000
0000
0000
fffe
fffe
0380
0380
0380
0380
0380
0380
0380
0380
0380
0380
0380
0380
0380
0380
0380
0380
0380
0000
0000
0000
0000
0000
0000
0000
ENDCHAR
STARTCHAR ch-85
ENCODING 85
SWIDTH 533 0
DWIDTH 16 0
BBX 16 30 0 -7
BITMAP
0000
0000
0000
0000
700c
700c
700c
700c
700c
700c
700c
700c
700c
700c
700c
700c
700c
700c
701c
3818
3c38
1ff0
07c0
0000
0000
0000
0000
0000
0000
0000
ENDCHAR
STARTCHAR ch-86
ENCODING 86
SWIDTH 533 0
DWIDTH 16 0
BBX 16 30 0 -7
BITMAP
0000
0000
0000
0000
e006
e006
700e
700c
700c
381c
3818
3818
1c38
1c30
1c30
0e70
0e60
0e60
07c0
07c0
07c0
0380
0380
0000
0000
0000
0000
0000
0000
0000
ENDCHAR
STARTCHAR ch-87
ENCODING 87
SWIDTH 533 0
DWIDTH 16 0
BBX 16 30 0 -7
BITMAP
0000
0000
0000
0000
e003
e1c3
e1c3
e1c3
e3e6
e3e6
73e6
72e6
76e6
7674
7674
7674
3e7c
3e7c
3838
3838
3838
3838
3838
0000
0000
0000
0000
0000
0000
0000
ENDCHAR
STARTCHAR ch-88
ENCODING 88
SWIDTH 533 0
DWIDTH 16 0
BBX 16 30 0 -7
BITMAP
0000
0000
0000
0000
700e
780e
381c
3c18
1c38
1e70
0f60
07e0
07c0
03c0
07e0
0fe0
0cf0
1c78
3838
303c
701c
e01e
e00e
0000
0000
0000
0000
0000
0000
0000
ENDCHAR
STARTCHAR ch-89
ENCODING 89
SWIDTH 533 0
DWIDTH 16 0
BBX 16 30 0 -7
BITMAP
0000
0000
0000
0000
e006
e00e
700c
701c
3838
1c30
1c70
0ee0
07c0
0380
0380
0380
0380
0380
0380
0380
0380
0380
0380
0000
0000
0000
0000
0000
0000
0000
ENDCHAR
STARTCHAR ch-90
ENCODING 90
SWIDTH 533 0
DWIDTH 16 0
BBX 16 30 0 -7
BITMAP
0000
0000
0000
0000
7ffe
7ffe
000e
001c
0038
0070
0070
00e0
01c0
0380
0380
0700
0e00
0e00
1c00
3800
7000
7ffe
7ffe
0000
0000
0000
0000
0000
0000
0000
ENDCHAR
STARTCHAR ch-91
ENCODING 91
SWIDTH 533 0
DWIDTH 16 0
BBX 16 30 0 -7
BITMAP
0000
0000
0000
1ff0
1ff0
1c00
1c00
1c00
1c00
1c00
1c00
1c00
1c00
1c00
1c00
1c00
1c00
1c00
1c00
1c00
1c00
1c00
1c00
1c00
1c00
1ff0
1ff0
0000
0000
0000
ENDCHAR
STARTCHAR ch-92
ENCODING 92
SWIDTH 533 0
DWIDTH 16 0
BBX 16 30 0 -7
BITMAP
0000
0000
0000
6000
7000
3000
3800
1800
1c00
0c00
0e00
0600
0700
0300
0380
0180
01c0
00c0
00e0
0060
0070
0030
0038
0018
001c
000c
000e
0000
0000
0000
ENDCHAR
STARTCHAR ch-93
ENCODING 93
SWIDTH 533 0
DWIDTH 16 0
BBX 16 30 0 -7
BITMAP
0000
0000
0000
1ff0
1ff0
0070
0070
0070
0070
0070
0070
0070
0070
0070
0070
0070
0070
0070
0070
0070
0070
0070
0070
0070
0070
1ff0
1ff0
0000
0000
0000
ENDCHAR
STARTCHAR ch-94
ENCODING 94
SWIDTH 533 0
DWIDTH 16 0
BBX 16 30 0 -7
BITMAP
0000
0000
0000
0000
0180
0180
03c0
03c0
0660
0660
0c30
0c30
1818
1818
300c
300c
6006
6006
0000
0000
0000
0000
0000
0000
0000
0000
0000
0000
0000
0000
ENDCHAR
STARTCHAR ch-95
ENCODING 95
SWIDTH 533 0
DWIDTH 16 0
BBX 16 30 0 -7
BITMAP
0000
0000
0000
0000
0000
0000
0000
0000
0000
0000
0000
0000
0000
0000
0000
0000
0000
0000
0000
0000
0000
0000
0000
7ffe
7ffe
0000
0000
0000
0000
0000
ENDCHAR
STARTCHAR ch-96
ENCODING 96
SWIDTH 533 0
DWIDTH 16 0
BBX 16 30 0 -7
BITMAP
0000
0000
0000
00c0
0180
0300
0300
03c0
03c0
03c0
03c0
0000
0000
0000
0000
0000
0000
0000
0000
0000
0000
0000
0000
0000
0000
0000
0000
0000
0000
0000
ENDCHAR
STARTCHAR ch-97
ENCODING 97
SWIDTH 533 0
DWIDTH 16 0
BBX 16 30 0 -7
BITMAP
0000
0000
0000
0000
0000
0000
0000
0000
0000
0fc0
3fe0
38f0
0070
0070
0070
0ff0
3ff0
7870
7070
7070
78f0
3fbc
1f1c
0000
0000
0000
0000
0000
0000
0000
ENDCHAR
STARTCHAR ch-98
ENCODING 98
SWIDTH 533 0
DWIDTH 16 0
BBX 16 30 0 -7
BITMAP
0000
0000
0000
7000
7000
7000
7000
7000
7000
73e0
77f0
7c78
783c
701c
701c
701c
701c
701c
701c
7038
7878
7ff0
67c0
0000
0000
0000
0000
0000
0000
0000
ENDCHAR
STARTCHAR ch-99
ENCODING 99
SWIDTH 533 0
DWIDTH 16 0
BBX 16 30 0 -7
BITMAP
0000
0000
0000
0000
0000
0000
0000
0000
0000
03f0
0ffc
1e1c
1c00
3c00
3800
3800
3800
3800
3c00
1c00
1e1c
0ffc
03f0
0000
0000
0000
0000
0000
0000
0000
ENDCHAR
STARTCHAR ch-100
ENCODING 100
SWIDTH 533 0
DWIDTH 16 0
BBX 16 30 0 -7
BITMAP
0000
0000
0000
001c
001c
001c
001c
001c
001c
07dc
1ffc
3c3c
381c
701c
701c
701c
701c
701c
701c
783c
3c7c
1fdc
0f9c
0000
0000
0000
0000
0000
0000
0000
ENDCHAR
STARTCHAR ch-101
ENCODING 101
SWIDTH 533 0
DWIDTH 16 0
BBX 16 30 0 -7
BITMAP
0000
0000
0000
0000
0000
0000
0000
0000
0000
03e0
0ff0
1e38
1c18
381c
381c
3ffc
3ffc
3800
3c00
1c00
1e1c
0ffc
03f0
0000
0000
0000
0000
0000
0000
0000
ENDCHAR
STARTCHAR ch-102
ENCODING 102
SWIDTH 533 0
DWIDTH 16 0
BBX 16 30 0 -7
BITMAP
0000
0000
007c
01fc
0380
0700
0700
0700
0700
7ffc
7ffc
0700
0700
0700
0700
0700
0700
0700
0700
0700
0700
0700
0700
0000
0000
0000
0000
0000
0000
0000
ENDCHAR
STARTCHAR ch-103
ENCODING 103
SWIDTH 533 0
DWIDTH 16 0
BBX 16 30 0 -7
BITMAP
0000
0000
0000
0000
0000
0000
0000
0000
0000
07cc
1ffc
3c3c
381c
701c
701c
701c
701c
701c
701c
783c
3c7c
1fdc
0f9c
001c
0038
3878
3ff0
0fc0
0000
0000
ENDCHAR
STARTCHAR ch-104
ENCODING 104
SWIDTH 533 0
DWIDTH 16 0
BBX 16 30 0 -7
BITMAP
0000
0000
0000
3800
3800
3800
3800
3800
3800
39f0
3bf8
3e3c
3c1c
381c
381c
381c
381c
381c
381c
381c
381c
381c
381c
0000
0000
0000
0000
0000
0000
0000
ENDCHAR
STARTCHAR ch-105
ENCODING 105
SWIDTH 533 0
DWIDTH 16 0
BBX 16 30 0 -7
BITMAP
0000
0000
0000
0070
0070
0070
0000
0000
0000
0ff0
0ff0
0070
0070
0070
0070
0070
0070
0070
0070
0070
0070
0070
0070
0000
0000
0000
0000
0000
0000
0000
ENDCHAR
STARTCHAR ch-106
ENCODING 106
SWIDTH 533 0
DWIDTH 16 0
BBX 16 30 0 -7
BITMAP
0000
0000
0000
0038
0038
0038
0000
0000
0000
0ff8
0ff8
0038
0038
0038
0038
0038
0038
0038
0038
0038
0038
0038
0038
0038
0038
0070
1fe0
1f80
0000
0000
ENDCHAR
STARTCHAR ch-107
ENCODING 107
SWIDTH 533 0
DWIDTH 16 0
BBX 16 30 0 -7
BITMAP
0000
0000
0000
7000
7000
7000
7000
7000
7000
7038
7070
70e0
71c0
7380
7700
7e00
7f00
7780
73c0
71e0
70f0
7078
703c
0000
0000
0000
0000
0000
0000
0000
ENDCHAR
STARTCHAR ch-108
ENCODING 108
SWIDTH 533 0
DWIDTH 16 0
BBX 16 30 0 -7
BITMAP
0000
0000
0000
0ff0
0ff0
0070
0070
0070
0070
0070
0070
0070
0070
0070
0070
0070
0070
0070
0070
0070
0070
0070
0070
0000
0000
0000
0000
0000
0000
0000
ENDCHAR
STARTCHAR ch-109
ENCODING 109
SWIDTH 533 0
DWIDTH 16 0
BBX 16 30 0 -7
BITMAP
0000
0000
0000
0000
0000
0000
0000
0000
0000
e71c
efbe
fbee
f3ce
e38e
e38e
e38e
e38e
e38e
e38e
e38e
e38e
e38e
e38e
0000
0000
0000
0000
0000
0000
0000
ENDCHAR
STARTCHAR ch-110
ENCODING 110
SWIDTH 533 0
DWIDTH 16 0
BBX 16 30 0 -7
BITMAP
0000
0000
0000
0000
0000
0000
0000
0000
0000
39f0
3bf8
3e3c
3c1c
381c
381c
381c
381c
381c
381c
381c
381c
381c
381c
0000
0000
0000
0000
0000
0000
0000
ENDCHAR
STARTCHAR ch-111
ENCODING 111
SWIDTH 533 0
DWIDTH 16 0
BBX 16 30 0 -7
BITMAP
0000
0000
0000
0000
0000
0000
0000
0000
0000
07e0
1ff8
3c3c
381c
700e
700e
700e
700e
700e
700e
381c
3c3c
1ff8
07e0
0000
0000
0000
0000
0000
0000
0000
ENDCHAR
STARTCHAR ch-112
ENCODING 112
SWIDTH 533 0
DWIDTH 16 0
BBX 16 30 0 -7
BITMAP
0000
0000
0000
0000
0000
0000
0000
0000
0000
73e0
77f0
7c78
783c
701c
701c
701c
701c
701c
701c
7038
7878
7ff0
77c0
7000
7000
7000
7000
7000
0000
0000
ENDCHAR
STARTCHAR ch-113
ENCODING 113
SWIDTH 533 0
DWIDTH 16 0
BBX 16 30 0 -7
BITMAP
0000
0000
0000
0000
0000
0000
0000
0000
0000
07cc
1ffc
3c3c
381c
701c
701c
701c
701c
701c
701c
783c
3c7c
1fdc
0f9c
001c
001c
001c
001c
001c
0000
0000
ENDCHAR
STARTCHAR ch-114
ENCODING 114
SWIDTH 533 0
DWIDTH 16 0
BBX 16 30 0 -7
BITMAP
0000
0000
0000
0000
0000
0000
0000
0000
0000
1cf8
1df8
1f18
1e18
1c00
1c00
1c00
1c00
1c00
1c00
1c00
1c00
1c00
1c00
0000
0000
0000
0000
0000
0000
0000
ENDCHAR
STARTCHAR ch-115
ENCODING 115
SWIDTH 533 0
DWIDTH 16 0
BBX 16 30 0 -7
BITMAP
0000
0000
0000
0000
0000
0000
0000
0000
0000
07e0
1ff8
3c38
3800
3800
3f00
1fe0
07f8
00fc
001c
001c
383c
3ff8
0fe0
0000
0000
0000
0000
0000
0000
0000
ENDCHAR
STARTCHAR ch-116
ENCODING 116
SWIDTH 533 0
DWIDTH 16 0
BBX 16 30 0 -7
BITMAP
0000
0000
0000
0000
0000
0000
0700
0700
0700
3ff8
3ff8
0700
0700
0700
0700
0700
0700
0700
0700
0700
0380
01fc
007c
0000
0000
0000
0000
0000
0000
0000
ENDCHAR
STARTCHAR ch-117
ENCODING 117
SWIDTH 533 0
DWIDTH 16 0
BBX 16 30 0 -7
BITMAP
0000
0000
0000
0000
0000
0000
0000
0000
0000
381c
381c
381c
381c
381c
381c
381c
381c
381c
381c
383c
3c7c
1fdc
0f9c
0000
0000
0000
0000
0000
0000
0000
ENDCHAR
STARTCHAR ch-118
ENCODING 118
SWIDTH 533 0
DWIDTH 16 0
BBX 16 30 0 -7
BITMAP
0000
0000
0000
0000
0000
0000
0000
0000
0000
700e
780e
380c
3c1c
1c18
1e18
0e38
0f30
0770
0760
03e0
03e0
01c0
01c0
0000
0000
0000
0000
0000
0000
0000
ENDCHAR
STARTCHAR ch-119
ENCODING 119
SWIDTH 533 0
DWIDTH 16 0
BBX 16 30 0 -7
BITMAP
0000
0000
0000
0000
0000
0000
0000
0000
0000
e003
e1c3
e1c3
e1c3
73e6
72e6
76e6
7674
7674
3c7c
3838
3838
3838
3838
0000
0000
0000
0000
0000
0000
0000
ENDCHAR
STARTCHAR ch-120
ENCODING 120
SWIDTH 533 0
DWIDTH 16 0
BBX 16 30 0 -7
BITMAP
0000
0000
0000
0000
0000
0000
0000
0000
0000
381c
3c1c
1c18
1e38
0f30
0760
03c0
03c0
06e0
0cf0
1c78
1838
383c
381c
0000
0000
0000
0000
0000
0000
0000
ENDCHAR
STARTCHAR ch-121
ENCODING 121
SWIDTH 533 0
DWIDTH 16 0
BBX 16 30 0 -7
BITMAP
0000
0000
0000
0000
0000
0000
0000
0000
0000
700e
780e
380c
3c0c
1c1c
1e18
0e18
0f38
0730
07b0
03e0
03e0
01c0
01c0
0180
0380
0700
3e00
3c00
0000
0000
ENDCHAR
STARTCHAR ch-122
ENCODING 122
SWIDTH 533 0
DWIDTH 16 0
BBX 16 30 0 -7
BITMAP
0000
0000
0000
0000
0000
0000
0000
0000
0000
3ffc
3ffc
001c
0038
0070
00e0
01c0
0380
0700
0e00
1c00
3800
3ffc
3ffc
0000
0000
0000
0000
0000
0000
0000
ENDCHAR
STARTCHAR ch-123
ENCODING 123
SWIDTH 533 0
DWIDTH 16 0
BBX 16 30 0 -7
BITMAP
0000
0000
0000
0078
01f8
01c0
0380
0380
0380
0380
0380
0180
0180
0300
1e00
1e00
0300
0180
0180
0380
0380
0380
0380
0380
01c0
01f8
0078
0000
0000
0000
ENDCHAR
STARTCHAR ch-124
ENCODING 124
SWIDTH 533 0
DWIDTH 16 0
BBX 16 30 0 -7
BITMAP
0000
0000
0000
0380
0380
0380
0380
0380
0380
0380
0380
0380
0380
0380
0380
0380
0380
0380
0380
0380
0380
0380
0380
0380
0380
0380
0380
0000
0000
0000
ENDCHAR
STARTCHAR ch-125
ENCODING 125
SWIDTH 533 0
DWIDTH 16 0
BBX 16 30 0 -7
BITMAP
0000
0000
0000
1e00
1f80
0380
01c0
01c0
01c0
01c0
01c0
0180
0180
00c0
0078
0078
00c0
0180
0180
01c0
01c0
01c0
01c0
01c0
0380
1f80
1e00
0000
0000
0000
ENDCHAR
STARTCHAR ch-126
ENCODING 126
SWIDTH 533 0
DWIDTH 16 0
BBX 16 30 0 -7
BITMAP
0000
0000
0000
0000
0000
0000
0000
0000
0000
0000
0000
0000
1f06
3fc6
63fc
60f8
0000
0000
0000
0000
0000
0000
0000
0000
0000
0000
0000
0000
0000
0000
ENDCHAR
STARTCHAR ch-127
ENCODING 127
SWIDTH 533 0
DWIDTH 16 0
BBX 16 30 0 -7
BITMAP
0000
0000
0000
aaaa
5554
aaaa
5554
aaaa
5554
aaaa
5554
aaaa
5554
aaaa
5554
aaaa
5554
aaaa
5554
aaaa
5554
aaaa
5554
aaaa
5554
aaaa
0000
0000
0000
0000
ENDCHAR
ENDFONT
